<svg width="41" height="38" viewBox="0 0 41 38" fill="none" xmlns="http://www.w3.org/2000/svg">
<path d="M4 5C3.73478 5 3.48043 4.89464 3.29289 4.70711C3.10536 4.51957 3 4.26522 3 4C3 3.73478 3.10536 3.48043 3.29289 3.29289C3.48043 3.10536 3.73478 3 4 3C4.26522 3 4.51957 3.10536 4.70711 3.29289C4.89464 3.48043 5 3.73478 5 4C5 4.26522 4.89464 4.51957 4.70711 4.70711C4.51957 4.89464 4.26522 5 4 5ZM4 8C5.06087 8 6.07828 7.57857 6.82843 6.82843C7.57857 6.07828 8 5.06087 8 4C8 2.93913 7.57857 1.92172 6.82843 1.17157C6.07828 0.421427 5.06087 0 4 0C2.93913 0 1.92172 0.421427 1.17157 1.17157C0.421427 1.92172 0 2.93913 0 4C0 5.06087 0.421427 6.07828 1.17157 6.82843C1.92172 7.57857 2.93913 8 4 8ZM19.5 1C17.2457 1 15.0837 1.89553 13.4896 3.48959C11.8955 5.08365 11 7.24566 11 9.5C11 9.89782 11.158 10.2794 11.4393 10.5607C11.7206 10.842 12.1022 11 12.5 11C12.8978 11 13.2794 10.842 13.5607 10.5607C13.842 10.2794 14 9.89782 14 9.5C14 8.4122 14.3226 7.34883 14.9269 6.44436C15.5313 5.53989 16.3902 4.83494 17.3952 4.41866C18.4002 4.00238 19.5061 3.89346 20.573 4.10568C21.6399 4.3179 22.6199 4.84172 23.3891 5.61091C24.1583 6.3801 24.6821 7.36011 24.8943 8.427C25.1065 9.4939 24.9976 10.5998 24.5813 11.6048C24.1651 12.6098 23.4601 13.4687 22.5556 14.0731C21.6512 14.6774 20.5878 15 19.5 15H2.5C2.10218 15 1.72064 15.158 1.43934 15.4393C1.15804 15.7206 1 16.1022 1 16.5C1 16.8978 1.15804 17.2794 1.43934 17.5607C1.72064 17.842 2.10218 18 2.5 18H19.5C21.7543 18 23.9163 17.1045 25.5104 15.5104C27.1045 13.9163 28 11.7543 28 9.5C28 7.24566 27.1045 5.08365 25.5104 3.48959C23.9163 1.89553 21.7543 1 19.5 1ZM34.404 13C32.9543 13 31.5463 13.4846 30.4037 14.3768C29.261 15.269 28.4495 16.5176 28.098 17.924L28.045 18.136C27.9939 18.3282 27.9816 18.5285 28.0087 18.7255C28.0357 18.9225 28.1017 19.1121 28.2027 19.2834C28.3038 19.4546 28.4378 19.6041 28.5971 19.723C28.7564 19.842 28.9378 19.9281 29.1306 19.9764C29.3235 20.0246 29.5241 20.0341 29.7206 20.0041C29.9172 19.9742 30.1058 19.9054 30.2756 19.8019C30.4453 19.6984 30.5928 19.5622 30.7095 19.4012C30.8261 19.2402 30.9096 19.0576 30.955 18.864L31.008 18.651C31.1974 17.8937 31.6345 17.2214 32.2498 16.7411C32.8651 16.2607 33.6234 15.9999 34.404 16H34.5C35.4283 16 36.3185 16.3687 36.9749 17.0251C37.6312 17.6815 38 18.5717 38 19.5C38 20.4283 37.6312 21.3185 36.9749 21.9749C36.3185 22.6313 35.4283 23 34.5 23H2.5C2.10218 23 1.72064 23.158 1.43934 23.4393C1.15804 23.7206 1 24.1022 1 24.5C1 24.8978 1.15804 25.2794 1.43934 25.5607C1.72064 25.842 2.10218 26 2.5 26H27C27.543 26.0002 28.0757 26.1477 28.5414 26.4268C29.0071 26.7059 29.3884 27.1062 29.6445 27.5849C29.9006 28.0637 30.0219 28.603 29.9956 29.1453C29.9693 29.6876 29.7964 30.2126 29.4951 30.6644C29.1939 31.1161 28.7757 31.4776 28.2852 31.7104C27.7946 31.9431 27.2501 32.0384 26.7097 31.986C26.1693 31.9336 25.6532 31.7355 25.2165 31.4129C24.7798 31.0903 24.4389 30.6552 24.23 30.154L24.135 29.924C24.0593 29.7421 23.9485 29.5769 23.809 29.4379C23.6694 29.2988 23.5038 29.1886 23.3217 29.1135C23.1396 29.0384 22.9444 29 22.7474 29.0003C22.5504 29.0007 22.3554 29.0398 22.1735 29.1155C21.9916 29.1912 21.8264 29.302 21.6874 29.4415C21.5483 29.5811 21.4381 29.7467 21.363 29.9288C21.2879 30.1109 21.2495 30.3061 21.2498 30.5031C21.2502 30.7001 21.2893 30.8951 21.365 31.077L21.462 31.307C21.7775 32.0643 22.245 32.7489 22.8356 33.3184C23.4262 33.8879 24.1273 34.3302 24.8956 34.6181C25.6639 34.9059 26.483 35.0331 27.3024 34.9918C28.1218 34.9505 28.924 34.7416 29.6595 34.378C30.395 34.0144 31.0481 33.5039 31.5784 32.8779C32.1087 32.2519 32.5051 31.5238 32.7429 30.7386C32.9807 29.9534 33.055 29.1278 32.9611 28.3127C32.8672 27.4977 32.6071 26.7106 32.197 26H34.5C36.2239 26 37.8772 25.3152 39.0962 24.0962C40.3152 22.8772 41 21.2239 41 19.5C41 17.7761 40.3152 16.1228 39.0962 14.9038C37.8772 13.6848 36.2239 13 34.5 13H34.404ZM14 34C14 33.7348 13.8946 33.4804 13.7071 33.2929C13.5196 33.1054 13.2652 33 13 33C12.7348 33 12.4804 33.1054 12.2929 33.2929C12.1054 33.4804 12 33.7348 12 34C12 34.2652 12.1054 34.5196 12.2929 34.7071C12.4804 34.8946 12.7348 35 13 35C13.2652 35 13.5196 34.8946 13.7071 34.7071C13.8946 34.5196 14 34.2652 14 34ZM17 34C17 35.0609 16.5786 36.0783 15.8284 36.8284C15.0783 37.5786 14.0609 38 13 38C11.9391 38 10.9217 37.5786 10.1716 36.8284C9.42143 36.0783 9 35.0609 9 34C9 32.9391 9.42143 31.9217 10.1716 31.1716C10.9217 30.4214 11.9391 30 13 30C14.0609 30 15.0783 30.4214 15.8284 31.1716C16.5786 31.9217 17 32.9391 17 34ZM36 6C36 5.73478 35.8946 5.48043 35.7071 5.29289C35.5196 5.10536 35.2652 5 35 5C34.7348 5 34.4804 5.10536 34.2929 5.29289C34.1054 5.48043 34 5.73478 34 6C34 6.26522 34.1054 6.51957 34.2929 6.70711C34.4804 6.89464 34.7348 7 35 7C35.2652 7 35.5196 6.89464 35.7071 6.70711C35.8946 6.51957 36 6.26522 36 6ZM39 6C39 7.06087 38.5786 8.07828 37.8284 8.82843C37.0783 9.57857 36.0609 10 35 10C33.9391 10 32.9217 9.57857 32.1716 8.82843C31.4214 8.07828 31 7.06087 31 6C31 4.93913 31.4214 3.92172 32.1716 3.17157C32.9217 2.42143 33.9391 2 35 2C36.0609 2 37.0783 2.42143 37.8284 3.17157C38.5786 3.92172 39 4.93913 39 6Z" fill="black"/>
</svg>
