<svg width="16" height="18" viewBox="0 0 16 18" fill="none" xmlns="http://www.w3.org/2000/svg">
<path d="M6.75 0C5.5125 0 4.5 1.0125 4.5 2.25H2.25C1.0125 2.25 0 3.2625 0 4.5H15.75C15.75 3.2625 14.7375 2.25 13.5 2.25H11.25C11.25 1.0125 10.2375 0 9 0H6.75ZM2.25 6.75V17.5725C2.25 17.82 2.43 18 2.6775 18H13.095C13.3425 18 13.5225 17.82 13.5225 17.5725V6.75H11.2725V14.625C11.2725 15.255 10.7775 15.75 10.1475 15.75C9.5175 15.75 9.0225 15.255 9.0225 14.625V6.75H6.7725V14.625C6.7725 15.255 6.2775 15.75 5.6475 15.75C5.0175 15.75 4.5225 15.255 4.5225 14.625V6.75H2.2725H2.25Z" fill="black"/>
</svg>
