<svg width="18" height="18" viewBox="0 0 18 18" fill="none" xmlns="http://www.w3.org/2000/svg">
<path d="M9.77313 9.03041L9.77369 9.02947C10.1702 9.15178 10.5311 9.36646 10.8257 9.65563C11.1202 9.94482 11.3396 10.3 11.4648 10.691L9.77313 9.03041ZM9.77313 9.03041C9.58334 8.97118 9.42648 8.84108 9.33562 8.67005C9.24448 8.49851 9.22664 8.29897 9.28559 8.11488C9.34458 7.93066 9.47618 7.77557 9.65306 7.68499C9.83007 7.59434 10.037 7.57631 10.2279 7.63524C10.8555 7.82908 11.4258 8.16869 11.8903 8.62482C12.3549 9.08093 12.7001 9.64005 12.8969 10.2545C12.9559 10.4385 12.938 10.6381 12.8469 10.8096C12.7557 10.9813 12.5979 11.1118 12.4071 11.1707C12.2162 11.2296 12.0092 11.2116 11.8322 11.1209C11.6554 11.0303 11.5238 10.8753 11.4648 10.6911L9.77313 9.03041ZM15.0002 4.33182L14.999 4.33182C14.8492 4.33243 14.7029 4.28925 14.5789 4.20829C14.4549 4.12737 14.359 4.01254 14.3025 3.87896C14.2461 3.74543 14.2314 3.59872 14.2603 3.45727C14.2891 3.3158 14.3603 3.1853 14.4655 3.08263L14.466 3.08212L15.1326 2.42757C15.2023 2.35924 15.2851 2.30479 15.3767 2.26756C15.4682 2.23033 15.5665 2.21111 15.6658 2.21111C15.7652 2.21111 15.8635 2.23033 15.955 2.26756C16.0465 2.30479 16.1294 2.35924 16.199 2.42757C16.2686 2.4959 16.3236 2.57677 16.361 2.66543C16.3984 2.75409 16.4176 2.84895 16.4176 2.94464C16.4176 3.04032 16.3984 3.13518 16.361 3.22384C16.3236 3.31251 16.2686 3.39337 16.199 3.4617L15.5325 4.11615C15.463 4.18431 15.3802 4.2386 15.2888 4.27569C15.1974 4.31278 15.0993 4.33189 15.0002 4.33182ZM17.75 14.3999V14.4V16.3636C17.75 16.7298 17.6019 17.082 17.3367 17.3423C17.0714 17.6028 16.7105 17.75 16.3333 17.75H1.66667C1.28948 17.75 0.928642 17.6028 0.663303 17.3423C0.39812 17.082 0.25 16.7298 0.25 16.3636V14.4V14.3999C0.249934 14.0816 0.361865 13.7724 0.567798 13.5247C0.773814 13.2769 1.06143 13.1058 1.38246 13.0415L1.58333 13.0012V12.7964V11.4545C1.58333 9.52599 2.36359 7.67547 3.754 6.31035C5.14455 4.94508 7.03151 4.17727 9 4.17727H9.05827C13.1131 4.20787 16.4167 7.51125 16.4167 11.5364V12.7964V13.0012L16.6175 13.0415C16.9386 13.1058 17.2262 13.2769 17.4322 13.5247C17.6381 13.7724 17.7501 14.0816 17.75 14.3999ZM3.08333 12.7636V13.0136H3.33333H14.6667H14.9167V12.7636V11.5364C14.9167 8.30792 12.2825 5.66483 9.04518 5.64091H9.04333H9C7.43227 5.64091 5.92784 6.25232 4.81791 7.34207C3.70783 8.43197 3.08333 9.91118 3.08333 11.4545V12.7636ZM16.25 14.7273V14.4773H16H2H1.75V14.7273V16.0364V16.2864H2H16H16.25V16.0364V14.7273ZM8.25 1.63636V0.981818C8.25 0.789224 8.32788 0.60357 8.46804 0.465959C8.60836 0.328196 8.79962 0.25 9 0.25C9.20038 0.25 9.39164 0.328195 9.53196 0.465959C9.67212 0.60357 9.75 0.789224 9.75 0.981818V1.63636C9.75 1.82896 9.67212 2.01461 9.53196 2.15222C9.39164 2.28999 9.20038 2.36818 9 2.36818C8.79962 2.36818 8.60836 2.28999 8.46804 2.15222C8.32788 2.01461 8.25 1.82896 8.25 1.63636ZM3.00083 4.3327C2.8 4.3327 2.60829 4.25433 2.46765 4.11625L1.80098 3.4617C1.6605 3.32377 1.58243 3.13768 1.58243 2.94464C1.58243 2.75159 1.6605 2.5655 1.80098 2.42757C1.94162 2.28949 2.13333 2.21111 2.33417 2.21111C2.535 2.21111 2.72671 2.28949 2.86735 2.42757L3.53402 3.08212C3.6745 3.22005 3.75257 3.40614 3.75257 3.59918C3.75257 3.79223 3.6745 3.97832 3.53402 4.11625C3.39338 4.25433 3.20167 4.3327 3.00083 4.3327Z" fill="black" stroke="black" stroke-width="0.5"/>
</svg>
